:SAMPLES-PER-SECOND 30
:FRAME-RANGE 1-663
:FULLY-SPECIFIED
:DEGREES
518
root  34.6814 39.4995 -89.4503 179.872 -1.23448 -177.079
RightUpLeg  -10.5039 -4.02416 4.14357
RightLeg  7.79189 -24.7781 2.46496
RightFoot  -1.13627 0.13654 -1.61467
RightToes  2.91037e-010 0 -3.6325e-017
Spine  3.19338 -0.340273 5.21604
Spine1  3.6205 0.206981 -0.771108
HEad  16.1167 18.3063 -2.57978
LeftShoulder1  1.53453 -0.676553 -30.6553
LeftArm  4.5424 -7.7239 -33.5723
LeftForeArm  -3.44759 -60.4774 -20.7688
LeftHand  0.0635237 4.65929 -16.5532
RightShoulder  6.42361 8.65791 46.237
RightArm  -13.6052 -6.74311 11.9186
RightForeArm  -12.1748 59.1847 20.3882
RightHand  0.668217 -2.21306 24.9229
LeftUpLeg  2.82597 16.4454 9.09921
LeftLeg  30.2365 6.46144 4.39713
LeftFoot  -9.69665 0.38717 -22.6892
LeftToes  -4.9116e-011 5.71383e-011 -3.31847e-011
519
root  34.8121 39.3022 -90.213 179.89 0.0782994 -176.439
RightUpLeg  -10.8611 -4.21173 5.17367
RightLeg  11.2723 -23.1945 1.33897
RightFoot  -3.56167 0.0489155 -1.07458
RightToes  2.91037e-010 0 -3.6325e-017
Spine  3.53899 -0.627813 7.37358
Spine1  3.97464 0.25166 -0.877937
HEad  15.7732 18.7633 -2.89705
LeftShoulder1  1.55657 -0.786048 -30.2288
LeftArm  6.76531 -10.1914 -33.8838
LeftForeArm  -4.81611 -59.0696 -19.643
LeftHand  0.0877601 4.5075 -16.7351
RightShoulder  5.90409 7.72705 46.0189
RightArm  -12.4774 -7.44724 11.3461
RightForeArm  -12.4215 59.7703 20.9301
RightHand  0.694507 -2.13329 25.2063
LeftUpLeg  -2.08172 14.1925 9.8847
LeftLeg  40.3395 4.97211 4.88531
LeftFoot  -2.83599 1.30029 -17.1501
LeftToes  -4.9116e-011 5.71383e-011 -3.31847e-011
520
root  34.8979 39.0601 -90.9524 179.549 1.74731 -175.747
RightUpLeg  -11.0069 -4.42366 6.24991
RightLeg  15.1089 -21.3206 0.10559
RightFoot  -6.20084 -0.022289 -0.440338
RightToes  2.91037e-010 0 -3.6325e-017
Spine  4.40298 -0.749552 9.57049
Spine1  4.19333 0.578506 -0.902402
HEad  15.4946 19.0538 -3.34575
LeftShoulder1  1.58153 -0.854962 -30.2286
LeftArm  8.61732 -12.4747 -34.136
LeftForeArm  -5.89771 -58.1346 -18.9694
LeftHand  0.0651357 4.65387 -16.6966
RightShoulder  5.65945 7.35927 45.5944
RightArm  -12.0372 -9.03974 11.1994
RightForeArm  -12.2905 60.759 21.852
RightHand  0.658806 -2.29511 25.2575
LeftUpLeg  -6.15808 12.3137 10.7647
LeftLeg  48.77 2.24827 3.17095
LeftFoot  0.430467 1.31593 -12.7496
LeftToes  -4.9116e-011 5.71383e-011 -3.31847e-011
521
root  34.9635 39.0318 -91.7955 179.226 3.48062 -176.104
RightUpLeg  -10.0463 -4.70922 6.23008
RightLeg  16.822 -19.2865 -0.519195
RightFoot  -7.9608 -0.0515439 -0.0821026
RightToes  2.91037e-010 0 -3.6325e-017
Spine  4.28291 -0.911077 10.2246
Spine1  5.02947 0.693833 -1.20355
HEad  15.4061 19.9105 -3.57086
LeftShoulder1  1.57208 -0.827994 -30.236
LeftArm  9.68796 -14.0258 -34.3064
LeftForeArm  -6.93275 -57.2065 -18.3377
LeftHand  0.0732231 4.60444 -16.7867
RightShoulder  5.70349 7.41426 45.7217
RightArm  -11.1051 -9.45342 10.7421
RightForeArm  -13.0743 60.7381 21.8973
RightHand  0.612998 -2.45398 24.9002
LeftUpLeg  -9.6301 10.8296 10.2714
LeftLeg  54.6659 0.301924 0.936131
LeftFoot  -0.758386 1.13253 -12.1447
LeftToes  -4.9116e-011 5.71383e-011 -3.31847e-011
522
root  34.9597 39.1012 -92.7207 178.983 4.87943 -177.101
RightUpLeg  -8.5975 -5.74108 5.12546
RightLeg  17.4699 -16.8648 -0.376702
RightFoot  -9.48421 -0.076189 0.270352
RightToes  2.91037e-010 0 -3.6325e-017
Spine  3.44432 -1.30496 10.5994
Spine1  6.00496 0.588743 -2.20998
HEad  15.7871 20.9384 -3.77933
LeftShoulder1  1.56067 -0.793465 -30.262
LeftArm  10.3534 -14.6962 -34.063
LeftForeArm  -7.58722 -56.5618 -17.9155
LeftHand  0.0807275 4.54708 -16.5844
RightShoulder  5.70681 7.36712 45.9542
RightArm  -10.3004 -9.27586 10.7479
RightForeArm  -13.6373 60.2736 21.4967
RightHand  0.623624 -2.38115 24.6798
LeftUpLeg  -12.7587 8.88499 8.57693
LeftLeg  57.6194 -0.0788355 0.379497
LeftFoot  -1.75488 0.960571 -11.303
LeftToes  -4.9116e-011 5.71383e-011 -3.31847e-011
523
root  34.9508 39.1712 -93.6642 178.858 6.16757 -178.067
RightUpLeg  -7.05615 -6.72899 3.90688
RightLeg  17.6085 -14.4809 -0.0379104
RightFoot  -10.7423 -0.0916758 0.508223
RightToes  2.91037e-010 0 -3.6325e-017
Spine  2.60385 -1.58102 11.0938
Spine1  6.6672 0.546877 -3.27473
HEad  15.9458 21.8786 -4.47822
LeftShoulder1  1.53961 -0.731732 -30.2937
LeftArm  10.8147 -15.1491 -33.8107
LeftForeArm  -8.43192 -55.9431 -17.5428
LeftHand  0.0650007 4.65636 -16.7416
RightShoulder  5.59711 7.18225 45.8485
RightArm  -9.60532 -9.44951 10.9424
RightForeArm  -13.4201 60.3615 21.5623
RightHand  0.638678 -2.26874 24.3115
LeftUpLeg  -15.7533 6.93592 6.81926
LeftLeg  58.2996 0.355268 1.14419
LeftFoot  -3.10749 0.749721 -10.1387
LeftToes  -4.9116e-011 5.71383e-011 -3.31847e-011
524
root  34.976 39.3345 -94.6214 178.732 7.56623 -179.264
RightUpLeg  -4.87484 -7.74353 2.24249
RightLeg  16.3475 -12.1069 0.845821
RightFoot  -11.3463 -0.0835917 0.398135
RightToes  2.91037e-010 0 -3.6325e-017
Spine  1.65844 -1.58911 11.3728
Spine1  7.25758 0.759989 -4.91121
HEad  15.563 22.5526 -5.27864
LeftShoulder1  1.51227 -0.662673 -30.2386
LeftArm  11.1936 -15.548 -33.6291
LeftForeArm  -8.95072 -55.4832 -17.2662
LeftHand  0.0835675 4.54074 -16.8727
RightShoulder  5.50226 7.0154 45.7854
RightArm  -9.17862 -10.0226 11.015
RightForeArm  -12.9381 60.9212 22.0663
RightHand  0.608918 -2.4027 24.3064
LeftUpLeg  -17.9422 4.88072 4.78665
LeftLeg  56.0014 1.08633 2.22733
LeftFoot  -4.23239 0.601503 -9.2615
LeftToes  -4.9116e-011 5.71383e-011 -3.31847e-011
525
root  35.0044 39.4844 -95.5714 178.651 8.96112 179.699
RightUpLeg  -2.65725 -8.71572 0.585558
RightLeg  14.8884 -9.83946 1.78671
RightFoot  -11.7834 -0.0784693 0.34223
RightToes  2.91037e-010 0 -3.6325e-017
Spine  0.798773 -1.46317 11.6716
Spine1  7.71126 1.06358 -6.50163
HEad  14.7446 23.1894 -6.05049
LeftShoulder1  1.5037 -0.648593 -30.154
LeftArm  11.4036 -15.7285 -33.5043
LeftForeArm  -9.1083 -55.3934 -17.2173
LeftHand  0.0875909 4.52497 -17.1113
RightShoulder  5.43458 6.93632 45.5579
RightArm  -8.57834 -10.978 11.0252
RightForeArm  -12.3178 61.7257 22.836
RightHand  0.621207 -2.3289 24.1576
LeftUpLeg  -19.5204 3.32626 3.04578
LeftLeg  51.4419 1.7416 2.78686
LeftFoot  -4.80713 0.52795 -8.73305
LeftToes  -4.9116e-011 5.71383e-011 -3.31847e-011
